<svg xmlns="http://www.w3.org/2000/svg" xmlns:xlink="http://www.w3.org/1999/xlink" contentStyleType="text/css" data-diagram-type="DESCRIPTION" height="344px" preserveAspectRatio="none" style="width:533px;height:344px;background:#FFFFFF;" version="1.1" viewBox="0 0 533 344" width="533px" zoomAndPan="magnify"><?plantuml 1.2026.5?><defs/><g><g class="title" data-source-line="14"><text fill="#000000" font-family="sans-serif" font-size="14" font-weight="700" lengthAdjust="spacing" textLength="216.5625" x="154.9688" y="24.5332">&#20351;&#29992;&#26696;&#20363;&#22294;&#65288;&#26597;&#35657;&#36039;&#26009;&#24235;&#23376;&#31995;&#32113;&#65289;</text></g><!--cluster ????????--><g class="cluster" data-qualified-name="........" data-source-line="18" id="ent0002"><rect fill="none" height="285" rx="2.5" ry="2.5" style="stroke:#181818;stroke-width:1;" width="412" x="107.5" y="45.6094"/><text fill="#000000" font-family="sans-serif" font-size="14" font-weight="700" lengthAdjust="spacing" textLength="115.5" x="255.75" y="62.1426">&#26597;&#35657;&#36039;&#26009;&#24235;&#23376;&#31995;&#32113;</text></g><!--entity UC_Browse--><g class="entity" data-qualified-name=".........UC_Browse" data-source-line="19" id="ent0003"><ellipse cx="192.3716" cy="97.7837" fill="#EFF6FF" rx="68.8716" ry="16.1743" style="stroke:#3B82F6;stroke-width:0.5;"/><text fill="#000000" font-family="sans-serif" font-size="14" lengthAdjust="spacing" textLength="98" x="143.3716" y="103.0884">&#28687;&#35261;&#26597;&#35657;&#36039;&#26009;&#24235;</text></g><!--entity UC_Search--><g class="entity" data-qualified-name=".........UC_Search" data-source-line="20" id="ent0004"><ellipse cx="192.3716" cy="164.7837" fill="#EFF6FF" rx="68.8716" ry="16.1743" style="stroke:#3B82F6;stroke-width:0.5;"/><text fill="#000000" font-family="sans-serif" font-size="14" lengthAdjust="spacing" textLength="98" x="143.3716" y="170.0884">&#25628;&#23563;&#26597;&#35657;&#36039;&#26009;&#24235;</text></g><!--entity UC_Filter--><g class="entity" data-qualified-name=".........UC_Filter" data-source-line="21" id="ent0005"><ellipse cx="192.3716" cy="231.7837" fill="#EFF6FF" rx="68.8716" ry="16.1743" style="stroke:#3B82F6;stroke-width:0.5;"/><text fill="#000000" font-family="sans-serif" font-size="14" lengthAdjust="spacing" textLength="98" x="143.3716" y="237.0884">&#20381;&#39080;&#38570;&#39006;&#22411;&#31721;&#36984;</text></g><!--entity UC_Stats--><g class="entity" data-qualified-name=".........UC_Stats" data-source-line="22" id="ent0006"><ellipse cx="192.3716" cy="298.7837" fill="#EFF6FF" rx="68.8716" ry="16.1743" style="stroke:#3B82F6;stroke-width:0.5;"/><text fill="#000000" font-family="sans-serif" font-size="14" lengthAdjust="spacing" textLength="98" x="143.3716" y="304.0884">&#27298;&#35222;&#36039;&#26009;&#24235;&#32113;&#35336;</text></g><!--entity UC_View--><g class="entity" data-qualified-name=".........UC_View" data-source-line="23" id="ent0007"><ellipse cx="440.897" cy="164.5611" fill="#EFF6FF" rx="62.397" ry="15.4517" style="stroke:#3B82F6;stroke-width:0.5;"/><text fill="#000000" font-family="sans-serif" font-size="14" lengthAdjust="spacing" textLength="84" x="398.897" y="169.8658">&#27298;&#35222;&#24555;&#21462;&#26597;&#35657;</text></g><!--entity User--><g class="entity" data-qualified-name="User" data-source-line="16" id="ent0001"><ellipse cx="33" cy="182.6094" fill="#F1F1F1" rx="16" ry="16" style="stroke:#181818;stroke-width:0.5;"/><path d="M33,202.6094 C37,202.6094 40,202.6094 44,198.6094 C52,198.6094 60,206.6094 60,214.6094 L60,218.6094 C60,222.6094 56,226.6094 52,226.6094 L14,226.6094 C10,226.6094 6,222.6094 6,218.6094 L6,214.6094 C6,206.6094 14,198.6094 22,198.6094 C26,202.6094 29,202.6094 33,202.6094" fill="#F1F1F1" style="stroke:#181818;stroke-width:0.5;"/><text fill="#000000" font-family="sans-serif" font-size="14" lengthAdjust="spacing" textLength="42" x="12" y="241.6426">&#20351;&#29992;&#32773;</text></g><!--link User to UC_Browse--><g class="link" data-entity-1="ent0001" data-entity-2="ent0003" data-link-type="dependency" data-source-line="26" id="lnk8"><path d="M60.78,167.6294 C71.58,154.4694 84.93,140.5494 99.5,130.6094 C113.1,121.3294 124.8581,115.9352 140.1081,110.8352" fill="none" id="User-to-UC_Browse" style="stroke:#1D4ED8;stroke-width:1;"/><polygon fill="#1D4ED8" points="144.85,109.2494,135.046,108.3103,140.1081,110.8352,137.5833,115.8973,144.85,109.2494" style="stroke:#1D4ED8;stroke-width:1;stroke-linejoin:miter;stroke-miterlimit:10;"/></g><!--link User to UC_Search--><g class="link" data-entity-1="ent0001" data-entity-2="ent0004" data-link-type="dependency" data-source-line="27" id="lnk9"><path d="M60.72,198.6494 C83.98,192.5994 113.3511,184.9482 140.9511,177.7682" fill="none" id="User-to-UC_Search" style="stroke:#1D4ED8;stroke-width:1;"/><polygon fill="#1D4ED8" points="145.79,176.5094,136.0728,174.9041,140.9511,177.7682,138.087,182.6464,145.79,176.5094" style="stroke:#1D4ED8;stroke-width:1;stroke-linejoin:miter;stroke-miterlimit:10;"/></g><!--link User to UC_Filter--><g class="link" data-entity-1="ent0001" data-entity-2="ent0005" data-link-type="dependency" data-source-line="28" id="lnk10"><path d="M60.72,210.0194 C81.25,213.4094 105.407,217.3936 130.927,221.6136" fill="none" id="User-to-UC_Filter" style="stroke:#1D4ED8;stroke-width:1;"/><polygon fill="#1D4ED8" points="135.86,222.4294,127.6332,217.0147,130.927,221.6136,126.328,224.9075,135.86,222.4294" style="stroke:#1D4ED8;stroke-width:1;stroke-linejoin:miter;stroke-miterlimit:10;"/></g><!--link User to UC_Stats--><g class="link" data-entity-1="ent0001" data-entity-2="ent0006" data-link-type="dependency" data-source-line="29" id="lnk11"><path d="M60.81,233.9994 C72,244.6594 85.62,256.2194 99.5,264.6094 C114.36,273.5894 127.2608,279.1961 143.0808,284.6261" fill="none" id="User-to-UC_Stats" style="stroke:#1D4ED8;stroke-width:1;"/><polygon fill="#1D4ED8" points="147.81,286.2494,140.5961,279.5442,143.0808,284.6261,137.9989,287.1109,147.81,286.2494" style="stroke:#1D4ED8;stroke-width:1;stroke-linejoin:miter;stroke-miterlimit:10;"/></g><!--link UC_Browse to UC_View--><g class="link" data-entity-1="ent0003" data-entity-2="ent0007" data-link-type="dependency" data-source-line="32" id="lnk12"><path d="M238.14,109.7394 C283.65,122.1094 348.8651,139.8376 393.3351,151.9276" fill="none" id="UC_Browse-to-UC_View" style="stroke:#1D4ED8;stroke-width:1;stroke-dasharray:7,7;"/><polygon fill="#1D4ED8" points="398.16,153.2394,390.5246,147.0184,393.3351,151.9276,388.4259,154.7382,398.16,153.2394" style="stroke:#1D4ED8;stroke-width:1;stroke-linejoin:miter;stroke-miterlimit:10;"/><text fill="#000000" font-family="sans-serif" font-size="13" lengthAdjust="spacing" textLength="55.6563" x="292.5" y="122.1045">&#171;include&#187;</text></g><!--link UC_Search to UC_View--><g class="link" data-entity-1="ent0004" data-entity-2="ent0007" data-link-type="dependency" data-source-line="33" id="lnk13"><path d="M261.51,164.6094 C297.99,164.6094 337.61,164.6094 373.12,164.6094" fill="none" id="UC_Search-to-UC_View" style="stroke:#1D4ED8;stroke-width:1;stroke-dasharray:7,7;"/><polygon fill="#1D4ED8" points="378.12,164.6094,369.12,160.6094,373.12,164.6094,369.12,168.6094,378.12,164.6094" style="stroke:#1D4ED8;stroke-width:1;stroke-linejoin:miter;stroke-miterlimit:10;"/><text fill="#000000" font-family="sans-serif" font-size="13" lengthAdjust="spacing" textLength="55.6563" x="292.5" y="161.1045">&#171;include&#187;</text></g><!--link UC_Filter to UC_View--><g class="link" data-entity-1="ent0005" data-entity-2="ent0007" data-link-type="dependency" data-source-line="34" id="lnk14"><path d="M239.34,219.7194 C270.22,211.6494 311.86,200.6594 348.5,190.6094 C365.22,186.0194 378.8116,182.1902 394.7016,177.6602" fill="none" id="UC_Filter-to-UC_View" style="stroke:#1D4ED8;stroke-width:1;stroke-dasharray:7,7;"/><polygon fill="#1D4ED8" points="399.51,176.2894,389.7582,174.9101,394.7016,177.6602,391.9515,182.6036,399.51,176.2894" style="stroke:#1D4ED8;stroke-width:1;stroke-linejoin:miter;stroke-miterlimit:10;"/><text fill="#000000" font-family="sans-serif" font-size="13" lengthAdjust="spacing" textLength="55.6563" x="292.5" y="187.1045">&#171;include&#187;</text></g><?plantuml-src fPBVIXj15CRlvoaEsmklLFe7aM83ZRel8ErjcUwEcy5rHsOcX58AMq9f92tn8WHQKbk5IcgKMgHGhD5tgPdzS-KhTBARf5CbXU9SdlDzv_pEjpi53sxmq1H0ltSUDplHJgr_LbVjrkLfBVhuEJdSJ8vVHwrtwgIh3hVYuv_nzs-Nfvk_mYQeHZK9g_71GV-a6NS_wHatGl39gWJ9W5El9C6bd3YIiW29DHfiO8xNuIbsrZpEoe6xo7p6uPQTFKCXIjXb5Hfui8fzGOpEXlPYZwp8Ppw1mMWSUBufm8vaF6_Z2X5itMoM1N6m8F0S0HIlKYpRzfocq1t6NSA7rRl5-JlsdAu-v9nLXiNRI_UMb-RH2oIfr8l-AtA4CaImSbSIlh802tWa24TeV15OaqPO6Vte4YiE6ybUxuhO0iXcBZufQcWTe668jjhgg3xHi48mTqgceN_s8TtjfE_tqvrjjLsFltv9N_xuOx2fBpMwkM5_DzbhZMThvgHJCpP8BCLrlJhlgaOhvng8H_B7b5HqqcWG44nF5uohpDAGsomDoVvIPRlrBvx7Dfk7CPlVb5PxKRkglucg7Ls4RwvZNOHlqNWxpCmKHdnm7nOMQE3uPPSK2cYCyszDpZTPyni0?></g></svg>